<svg id="SvgjsSvg1011" width="288" height="288" xmlns="http://www.w3.org/2000/svg" version="1.1" xmlns:xlink="http://www.w3.org/1999/xlink" xmlns:svgjs="http://svgjs.com/svgjs"><defs id="SvgjsDefs1012"></defs><g id="SvgjsG1013" transform="matrix(1,0,0,1,0,0)"><svg xmlns="http://www.w3.org/2000/svg" width="288" height="288" fill="none" viewBox="0 0 16 16"><path fill="#100e10" d="M12.4233 13.852C13.0857 14.3196 14 13.8459 14 13.0351L14 2.96498C14 2.15416 13.0857 1.68042 12.4233 2.14801L5.29034 7.18305C4.72592 7.58146 4.72592 8.41857 5.29034 8.81698L12.4233 13.852zM13 13.0351L5.86703 8.00002 13 2.96498 13 13.0351zM2 13.5C2 13.7761 2.22386 14 2.5 14 2.77614 14 3 13.7761 3 13.5L3 2.5C3 2.22386 2.77614 2 2.5 2 2.22386 2 2 2.22386 2 2.5V13.5z" class="color212121 svgShape"></path></svg></g></svg>