<?xml version="1.0"?>
<svg xmlns="http://www.w3.org/2000/svg" xmlns:xlink="http://www.w3.org/1999/xlink" xmlns:svgjs="http://svgjs.com/svgjs" version="1.1" width="512" height="512" x="0" y="0" viewBox="0 0 64 64" style="enable-background:new 0 0 512 512" xml:space="preserve" class=""><g><path xmlns="http://www.w3.org/2000/svg" d="m49.03 6c.552 0 1-.447 1-1s-.448-1-1-1h-.01c-.552 0-.994.447-.994 1s.452 1 1.004 1z" fill="#ffffff" data-original="#000000" style=""/><path xmlns="http://www.w3.org/2000/svg" d="m15.03 6c.552 0 1-.447 1-1s-.448-1-1-1h-.01c-.552 0-.994.447-.994 1s.452 1 1.004 1z" fill="#ffffff" data-original="#000000" style=""/><path xmlns="http://www.w3.org/2000/svg" d="m49.03 56.049c.552 0 1-.447 1-1s-.448-1-1-1h-.01c-.552 0-.994.447-.994 1s.452 1 1.004 1z" fill="#ffffff" data-original="#000000" style=""/><path xmlns="http://www.w3.org/2000/svg" d="m15.03 56.049c.552 0 1-.447 1-1s-.448-1-1-1h-.01c-.552 0-.994.447-.994 1s.452 1 1.004 1z" fill="#ffffff" data-original="#000000" style=""/><path xmlns="http://www.w3.org/2000/svg" d="m15 64h34c2.757 0 5-2.243 5-5v-4.001-45.998-4.001c0-2.757-2.243-5-5-5h-34c-2.757 0-5 2.243-5 5v4.001 45.998 4.001c0 2.757 2.243 5 5 5zm34-2h-34c-1.654 0-3-1.346-3-3v-.026c.838.635 1.87 1.025 3 1.025h34c1.13 0 2.162-.391 3-1.025v.026c0 1.654-1.346 3-3 3zm-24.003-5.999h1.002c0 .553.447 1 1 1s1-.447 1-1h.995v1.998h-3.997zm7.002 0c0 .553.447 1 1 1s1-.447 1-1h1c0 .553.447 1 1 1s1-.447 1-1h1c0 .553.447 1 1 1s1-.447 1-1h1c0 .553.447 1 1 1s1-.447 1-1h1.001v1.998h-13.006v-1.998zm-19.999-51.001c0-1.654 1.346-3 3-3h34c1.654 0 3 1.346 3 3v4.001 45.998c0 1.654-1.346 3-3 3h-3v-2.998c0-.553-.447-1-1-1h-21.003c-.553 0-1 .447-1 1v2.998h-7.997c-1.654 0-3-1.346-3-3v-45.998z" fill="#ffffff" data-original="#000000" style=""/><path xmlns="http://www.w3.org/2000/svg" d="m21.996 35.011c-1.103 0-2-.897-2-2 0-.553-.447-1-1-1s-1 .447-1 1c0 2.206 1.794 4 4 4s4-1.794 4-4c0-2.094-2.009-3.919-3.78-5.529-.83-.754-2.22-2.017-2.22-2.473 0-1.103.897-2 2-2s2 .897 2 2c0 .553.447 1 1 1s1-.447 1-1c0-2.206-1.794-4-4-4s-4 1.794-4 4c0 1.342 1.332 2.552 2.874 3.953 1.393 1.266 3.126 2.84 3.126 4.049 0 1.102-.897 2-2 2z" fill="#ffffff" data-original="#000000" style=""/><path xmlns="http://www.w3.org/2000/svg" d="m32.001 35.011c-1.103 0-2-.897-2-2 0-.553-.447-1-1-1s-1 .447-1 1c0 2.206 1.794 4 4 4s4-1.794 4-4c0-2.094-2.009-3.919-3.78-5.529-.83-.754-2.22-2.017-2.22-2.473 0-1.103.897-2 2-2s2 .897 2 2c0 .553.447 1 1 1s1-.447 1-1c0-2.206-1.794-4-4-4s-4 1.794-4 4c0 1.342 1.332 2.552 2.874 3.953 1.393 1.266 3.126 2.84 3.126 4.049 0 1.102-.897 2-2 2z" fill="#ffffff" data-original="#000000" style=""/><path xmlns="http://www.w3.org/2000/svg" d="m39.001 37.011h3c2.206 0 4-1.794 4-4v-8.002c0-2.206-1.794-4-4-4h-3c-.553 0-1 .447-1 1v14.002c0 .552.447 1 1 1zm5-12.002v8.002c0 1.103-.897 2-2 2h-2v-12.002h2c1.103 0 2 .897 2 2z" fill="#ffffff" data-original="#000000" style=""/></g></svg>
