<?xml version="1.0"?>
<svg xmlns="http://www.w3.org/2000/svg" xmlns:xlink="http://www.w3.org/1999/xlink" xmlns:svgjs="http://svgjs.com/svgjs" version="1.1" width="512" height="512" x="0" y="0" viewBox="0 0 512 512" style="enable-background:new 0 0 512 512" xml:space="preserve" class=""><g><path xmlns="http://www.w3.org/2000/svg" d="m367.5 201h-40c-11.046 0-20-8.954-20-20s8.954-20 20-20h40c11.046 0 20 8.954 20 20s-8.954 20-20 20zm-33.629 275.574c23.621-23.299 36.629-54.4 36.629-87.574 0-23.073-6.438-45.574-18.616-65.072-2.868-4.591-4.384-9.987-4.384-15.606v-27.322h20c11.046 0 20-8.954 20-20s-8.954-20-20-20h-20c-22.056 0-40 17.944-40 40v27.322c0 13.121 3.617 25.845 10.458 36.798 8.205 13.135 12.542 28.309 12.542 43.88 0 22.386-8.778 43.373-24.718 59.095-15.936 15.719-37.023 24.216-59.457 23.897-44.302-.609-81.002-37.141-81.811-81.434-.294-16.116 4.028-31.813 12.5-45.394 6.86-10.998 10.486-23.737 10.486-36.841v-207.319c0-32.827 27.267-60.763 59.542-61.002.15-.002.298-.002.448-.002 28.445 0 53.134 20.1 58.803 47.948 3.781 18.573 20.265 32.052 39.196 32.052h22.011c11.046 0 20-8.954 20-20s-8.954-20-20-20l-22.011-.031c-9.454-46.448-50.596-79.969-97.997-79.969-.248 0-.5.001-.748.003-26.441.196-51.387 10.95-70.242 30.278-18.702 19.173-29.002 44.289-29.002 70.723v207.318c0 5.612-1.53 11.031-4.425 15.671-12.574 20.158-18.99 43.427-18.554 67.293.583 31.968 13.472 62.083 36.292 84.797 22.818 22.713 52.992 35.464 84.962 35.903.583.008 1.163.012 1.745.012 32.542.002 63.149-12.54 86.351-35.424zm-111.371-87.574c0-13.807 11.193-25 25-25s25 11.193 25 25-11.193 25-25 25-25-11.193-25-25zm45-85v-204c0-11.046-8.954-20-20-20s-20 8.954-20 20v204c0 11.046 8.954 20 20 20s20-8.954 20-20z" fill="#ffffff" data-original="#000000" style="" class=""/></g></svg>
