<svg xmlns="http://www.w3.org/2000/svg" enable-background="new 0 0 24 24" viewBox="0 0 24 24"><path fill="#FFFFFF" d="M17.98,24.021c-0.031,0-0.062-0.003-0.093-0.009c-0.111-0.021-0.841-0.137-4.352-0.387c-0.177-0.013-0.333-0.117-0.412-0.275c-0.018-0.035-0.024-0.05-0.803-2.371c-0.003-0.012-0.007-0.022-0.01-0.034l-1.501-4.481c0,0.613,0.001,1.188,0.001,1.723c0.007,5.07,0.007,5.07-0.207,5.284c-0.094,0.094-0.225,0.148-0.357,0.148c-1.082,0-2.337,0.171-3.168,0.284c-1.051,0.144-1.213,0.165-1.428-0.06c-0.188-0.172-0.188-0.172-0.177-3.303c0.01-2.88,0.028-8.607,0.025-20.039c0-0.204,0.124-0.389,0.314-0.464C5.873,0.014,5.941,0,6.005,0h4.288c0.189,0,0.362,0.107,0.447,0.276c0.011,0.022,0.045,0.12,0.055,0.152c0.151,0.407,0.963,2.835,0.972,2.86c0.01,0.029,0.017,0.06,0.021,0.091c0.147,0.438,0.825,2.463,1.422,4.244l0.013-7.113c0.001-0.275,0.224-0.499,0.5-0.499l4.271-0.002l0,0c0.133,0,0.26,0.053,0.354,0.146s0.146,0.221,0.146,0.354c0.001,8.605,0.02,14.068,0.03,17.496c0.012,3.558,0.016,4.886-0.041,5.43c0.016,0.087,0.008,0.179-0.025,0.266C18.382,23.897,18.187,24.021,17.98,24.021z M6.502,1c0.002,11.104-0.018,16.709-0.027,19.546c-0.004,1.264-0.007,2.02-0.004,2.431c0.146-0.019,0.314-0.042,0.474-0.063c0.746-0.102,1.824-0.249,2.85-0.285c0.022-0.729,0.021-2.415,0.018-4.439c-0.001-1.349-0.003-2.952,0-4.788c0-0.245,0.178-0.453,0.42-0.492c0.245-0.045,0.477,0.102,0.554,0.334l2.484,7.413c0.004,0.012,0.008,0.024,0.011,0.036c0.315,0.941,0.537,1.604,0.658,1.961c1.98,0.144,3.03,0.241,3.586,0.304c0.012-0.682,0.007-2.211-0.002-4.947c-0.011-3.361-0.028-8.68-0.03-16.999h-3.271l-0.016,9.669c0,0.244-0.178,0.453-0.419,0.492c-0.247,0.042-0.477-0.102-0.555-0.333c-1.514-4.474-2.122-6.271-2.322-7.046c-0.04-0.046-0.071-0.1-0.092-0.161l0.049-0.019c-0.002-0.008-0.004-0.015-0.005-0.021l-0.044,0.015C10.737,3.364,10.156,1.634,9.938,1H6.502z"/></svg>